<?xml version="1.0" standalone="no"?>
<!DOCTYPE svg PUBLIC "-//W3C//DTD SVG 20010904//EN"
 "http://www.w3.org/TR/2001/REC-SVG-20010904/DTD/svg10.dtd">
<svg version="1.0" xmlns="http://www.w3.org/2000/svg"
 width="512.000000pt" height="512.000000pt" viewBox="0 0 512.000000 512.000000"
 preserveAspectRatio="xMidYMid meet">
<metadata>
Created by potrace 1.14, written by Peter Selinger 2001-2017
</metadata>
<g transform="translate(0.000000,512.000000) scale(0.100000,-0.100000)"
fill="#000000" stroke="none">
<path d="M3477 4445 c-52 -18 -99 -56 -122 -99 l-20 -36 -152 0 c-160 0 -194
-7 -210 -44 -10 -21 -12 -721 -3 -729 9 -7 144 -77 150 -77 3 0 5 155 5 345
l-1 345 106 0 105 0 19 -35 c49 -90 168 -132 270 -94 226 84 179 413 -62 433
-26 3 -64 -2 -85 -9z"/>
<path d="M2566 4378 c-71 -15 -133 -67 -162 -138 -19 -45 -17 -126 4 -172 20
-46 73 -104 104 -114 10 -3 19 -8 19 -12 1 -4 2 -90 3 -192 l2 -185 24 2 c14
1 45 4 70 7 25 2 50 5 55 5 7 1 11 64 10 182 l0 181 25 13 c68 35 119 119 120
194 1 154 -126 260 -274 229z"/>
<path d="M1656 4095 c-53 -19 -85 -43 -121 -94 -56 -80 -44 -200 28 -279 65
-70 187 -88 270 -38 46 26 97 82 97 104 0 9 36 12 120 12 l120 0 0 -139 0
-139 53 -17 c28 -9 62 -23 74 -31 12 -8 25 -14 28 -14 11 0 5 429 -6 453 -18
41 -49 47 -224 47 -127 0 -165 3 -165 13 0 22 -61 87 -101 108 -50 25 -123 31
-173 14z"/>
<path d="M497 3685 c-69 -18 -123 -60 -152 -119 -53 -109 -8 -248 97 -300 22
-11 23 -16 25 -166 2 -156 9 -191 42 -206 9 -4 172 -8 364 -9 l348 -2 19 32
c11 18 42 53 70 79 27 26 50 48 50 49 0 1 -164 2 -365 2 l-365 0 -1 35 c-2
117 3 175 17 183 35 20 86 73 103 106 22 44 26 119 11 169 -35 109 -153 175
-263 147z"/>
<path d="M4135 3681 c-94 -47 -140 -121 -137 -221 3 -69 57 -157 112 -180 16
-7 30 -15 31 -19 1 -9 1 -193 0 -213 -1 -17 -18 -18 -203 -18 l-202 0 40 -42
c23 -24 53 -60 69 -80 l27 -38 179 0 c98 0 189 4 203 10 43 16 49 42 49 216
l0 163 41 26 c91 58 127 161 91 266 -31 87 -101 139 -198 146 -48 3 -71 -1
-102 -16z"/>
<path d="M2645 3414 c-11 -2 -45 -9 -75 -15 -30 -6 -70 -19 -88 -28 l-33 -17
22 -24 c45 -52 81 -112 86 -144 4 -28 1 -38 -21 -57 -52 -46 -92 -35 -144 40
-126 178 -269 238 -402 166 -118 -65 -240 -219 -240 -304 0 -88 103 -182 265
-245 100 -38 112 -45 123 -72 15 -32 7 -65 -24 -92 -30 -27 -61 -25 -146 9
-173 68 -318 185 -354 287 -10 28 -24 52 -30 52 -6 0 -38 -14 -72 -31 -102
-51 -173 -147 -167 -225 2 -16 4 -36 4 -44 1 -8 6 -22 11 -30 7 -12 15 -9 41
18 47 48 81 70 104 66 51 -8 84 -46 77 -90 -1 -12 -34 -53 -72 -93 -79 -81
-137 -188 -147 -269 -12 -102 35 -220 126 -315 133 -142 284 -236 406 -254 67
-10 174 4 234 30 l35 15 -31 15 c-51 27 -59 82 -17 124 24 24 30 25 87 19 164
-18 202 -20 332 -21 229 0 338 18 455 77 102 52 154 137 151 250 -3 151 -118
236 -318 236 -125 0 -261 -28 -478 -98 -66 -21 -133 -41 -148 -44 -25 -6 -28
-10 -23 -37 2 -17 6 -32 8 -34 2 -2 37 2 78 9 95 16 189 12 286 -14 122 -33
159 -56 170 -110 6 -28 -17 -68 -47 -80 -25 -11 -38 -9 -87 10 -118 46 -263
53 -380 18 -33 -10 -47 -21 -59 -46 -40 -83 -141 -140 -243 -136 -134 4 -198
48 -178 121 11 43 49 63 97 52 80 -17 106 -18 137 -3 53 26 66 77 55 227 -1
11 -9 17 -23 17 -40 0 -168 37 -223 65 -58 28 -105 75 -105 105 0 35 23 69 53
80 27 9 39 6 99 -26 151 -77 276 -87 443 -34 55 18 103 34 106 36 4 2 -5 27
-20 56 -15 29 -31 64 -34 78 -4 16 -25 36 -58 55 -73 42 -194 162 -218 216
-40 86 -19 197 40 218 62 22 105 -17 102 -93 -3 -56 10 -82 66 -134 58 -54 66
-56 84 -17 9 19 30 41 47 50 27 14 33 14 60 0 47 -24 56 -54 38 -118 -25 -86
-9 -169 45 -233 25 -30 29 -31 72 -23 132 25 282 31 380 16 64 -10 160 -55
209 -97 36 -32 38 -33 69 -18 75 36 127 102 127 161 0 70 86 102 136 51 23
-22 25 -30 20 -76 -14 -116 -96 -230 -194 -274 l-43 -18 6 -61 c4 -33 10 -64
13 -69 2 -5 39 -6 81 -2 99 8 97 8 170 36 258 103 328 360 158 585 -99 131
-242 228 -340 228 -101 1 -203 -77 -267 -203 -39 -77 -60 -100 -95 -104 -51
-5 -97 40 -89 90 3 15 -5 23 -31 33 -62 22 -150 96 -193 162 -51 77 -59 111
-37 145 39 59 106 51 145 -18 31 -56 85 -114 122 -133 35 -17 98 -20 98 -5 0
14 84 96 130 126 48 32 45 40 -37 114 -70 62 -162 115 -246 142 -60 19 -190
32 -232 22z"/>
<path d="M4425 2798 c-43 -15 -110 -72 -124 -106 l-12 -28 -163 1 c-141 0
-163 -2 -161 -15 2 -8 4 -44 4 -80 l1 -66 160 1 c89 0 160 -4 160 -9 0 -26 69
-97 114 -116 220 -96 417 155 271 346 -51 67 -168 101 -250 72z"/>
<path d="M550 2750 c-155 -52 -206 -245 -97 -363 43 -46 89 -68 156 -74 48 -4
64 -1 111 24 37 19 65 44 85 74 l30 45 210 -1 c116 -1 213 1 217 3 4 1 2 13
-6 25 -7 12 -23 47 -36 77 l-22 56 -176 -1 c-145 0 -179 3 -190 15 -7 8 -27
33 -45 54 -58 71 -148 96 -237 66z"/>
<path d="M863 2240 c-39 -16 -45 -44 -45 -215 l-1 -162 -27 -16 c-134 -79
-160 -255 -54 -361 142 -142 392 -37 387 164 -1 26 -11 68 -23 94 -20 42 -75
97 -109 107 -12 4 -16 76 -12 212 l1 27 121 0 121 0 -7 31 c-12 54 -13 63 -14
97 l-1 32 -157 -1 c-87 0 -168 -4 -180 -9z"/>
<path d="M3808 2201 c-33 -30 -90 -68 -176 -118 -8 -5 183 -8 422 -7 l436 0 1
-73 c1 -40 1 -84 1 -98 0 -39 0 -40 -32 -59 -101 -59 -139 -185 -89 -291 37
-79 114 -127 204 -127 91 0 168 52 207 139 24 53 21 128 -7 187 -18 38 -89
106 -111 106 -9 0 -12 41 -12 154 0 85 -3 163 -6 173 -15 46 -29 47 -424 48
l-374 1 -40 -35z"/>
<path d="M3030 1803 l-75 -32 -3 -263 c-1 -145 0 -273 3 -286 3 -12 14 -31 25
-42 18 -18 34 -20 190 -20 l169 0 15 -27 c8 -16 27 -40 43 -54 117 -109 295
-75 360 69 50 107 13 222 -91 286 -41 26 -58 30 -111 30 -78 -1 -136 -31 -185
-97 l-35 -47 -112 0 -113 0 -2 258 -3 257 -75 -32z"/>
<path d="M2591 1720 c-5 -3 -8 -124 -7 -269 1 -263 -2 -291 -33 -291 -4 0 -24
-16 -45 -36 -145 -141 -43 -389 159 -386 158 2 262 153 210 303 -18 50 -35 71
-90 111 l-40 29 -2 252 c0 139 -2 262 -2 274 -1 21 -5 22 -72 20 -39 -1 -74
-4 -78 -7z"/>
<path d="M2230 1601 l-76 -36 1 -297 0 -298 -105 1 -105 0 -30 47 c-73 113
-244 130 -341 34 -44 -45 -67 -101 -67 -162 2 -93 42 -159 123 -201 100 -53
231 -17 289 77 l26 43 158 1 159 0 27 28 27 27 -1 382 c0 210 -2 383 -5 386
-3 2 -39 -12 -80 -32z"/>
</g>
</svg>
